<svg width="20" height="19" viewBox="0 0 20 19" fill="none" xmlns="http://www.w3.org/2000/svg">
<path fill-rule="evenodd" clip-rule="evenodd" d="M9.25002 18C9.25002 17.5858 9.5858 17.25 10 17.25H19C19.4142 17.25 19.75 17.5858 19.75 18C19.75 18.4142 19.4142 18.75 19 18.75H10C9.5858 18.75 9.25002 18.4142 9.25002 18Z" fill="black"/>
<path fill-rule="evenodd" clip-rule="evenodd" d="M16 1.62866C15.6363 1.62866 15.2875 1.77314 15.0303 2.03031L2.67724 14.3834L2.03079 16.9692L4.61658 16.3228L16.9697 3.96965C17.097 3.84231 17.198 3.69114 17.267 3.52476C17.3359 3.35839 17.3713 3.18007 17.3713 2.99998C17.3713 2.8199 17.3359 2.64158 17.267 2.4752C17.198 2.30882 17.097 2.15765 16.9697 2.03031C16.8423 1.90297 16.6912 1.80196 16.5248 1.73305C16.3584 1.66413 16.1801 1.62866 16 1.62866ZM13.9697 0.969652C14.5082 0.431175 15.2385 0.128662 16 0.128662C16.3771 0.128662 16.7505 0.202931 17.0988 0.347228C17.4472 0.491526 17.7637 0.703026 18.0303 0.969652C18.297 1.23628 18.5085 1.55281 18.6528 1.90118C18.7971 2.24954 18.8713 2.62291 18.8713 2.99998C18.8713 3.37705 18.7971 3.75042 18.6528 4.09879C18.5085 4.44715 18.297 4.76369 18.0303 5.03031L5.53035 17.5303C5.43423 17.6264 5.31379 17.6946 5.18192 17.7276L1.18192 18.7276C0.926336 18.7915 0.655971 18.7166 0.469686 18.5303C0.283401 18.344 0.208514 18.0737 0.272409 17.8181L1.27241 13.8181C1.30538 13.6862 1.37357 13.5658 1.46969 13.4697L13.9697 0.969652Z" fill="black"/>
</svg>
